<svg width="500px" height="500px" viewBox="0 0 500 500" version="1.1" xmlns="http://www.w3.org/2000/svg">
    <style>
        @media (prefers-color-scheme: dark) {
            .rocket {
                fill: #fff;
            }
        }
    </style>
    <path class="flame" fill="#FF8800" d="M184.296702,387.348146 C173.634355,398.00966 147.867015,414.224047 115.657839,413.113473 C130.762832,391.124099 81.2273418,418 81.2273418,418 C81.2273418,418 76.3404325,343.591514 111.881591,314.938694 C132.762022,298.057963 162.527743,296.725273 182.519645,316.715613 C202.511546,336.705953 203.177943,368.246266 184.296702,387.348146 Z"/>
    <path class="rocket" fill="#161616" transform="translate(308.859457, 190.760523) rotate(45.000000) translate(-308.859457, -190.760523)" d="M308.952809,-76.0889848 C355.537757,-41.1518617 393.935589,29.6709959 406.834963,115.290573 C411.395832,145.677226 412.351948,175.192853 410.153696,202.722924 C446.909804,220.959377 484.818483,250.612242 488.986323,262.543223 C495.123202,280.013121 496.842232,375.293122 477.161972,457.61003 C461.424881,432.113951 437.035159,357.040451 361.331777,336.742938 L361.742839,336.856015 L366.366664,357.518128 L251.471397,357.527079 L255.946839,336.864015 L254.131388,337.368192 C180.196827,358.536963 156.136663,432.368911 140.556943,457.61003 C120.876683,375.293122 122.595713,280.013121 128.732592,262.543223 C132.90967,250.585798 170.977317,220.827846 207.810207,202.599995 C205.601915,175.098053 206.528951,145.628839 211.040837,115.305825 C223.796172,29.5268591 262.205039,-41.3019818 308.952809,-76.0889848 Z M280.613642,37.234581 C264.966008,52.8822144 264.964032,78.2500647 280.609228,93.8952604 C296.254423,109.540456 321.622274,109.53848 337.269907,93.8908465 C352.917541,78.243213 352.919517,52.8753628 337.274321,37.2301671 C321.629125,21.5849714 296.261275,21.5869475 280.613642,37.234581 Z"/>
</svg>
